<svg width="24" height="24" viewBox="0 0 24 24" xmlns="http://www.w3.org/2000/svg" fill-rule="evenodd" clip-rule="evenodd"><path d="M3.278 3.956c-.459 0-.883.211-1.103.552-.363.561-.218 1.315.352 1.832a2.1 2.1 0 001.385.546c.581 0 1.093-.268 1.444-.755l3.208-4.373-.502-.366-2.928 3.966-.4-.557c-.39-.546-.908-.845-1.456-.845m.634 3.928a3.104 3.104 0 01-2.056-.804C1.278 6.555.973 5.869.973 5.189c0-1.62 1.426-2.232 2.305-2.232.675 0 1.308.265 1.829.756L7.849 0l2.112 1.541-3.797 5.177c-.542.751-1.342 1.166-2.252 1.166M19.298.045l-1.2 2.215-2.476.455 1.735 1.825-.332 2.496 2.273-1.086 2.271 1.086-.331-2.496 1.735-1.825-2.476-.455L19.298.045zm0 2.098l.548 1.013 1.132.208-.793.834.152 1.142-1.039-.496-1.039.496.152-1.142-.794-.834 1.132-.208.549-1.013m-7.312 3.894a4.495 4.495 0 104.495 4.494 4.497 4.497 0 00-4.495-4.494m0 .999a3.5 3.5 0 013.496 3.495 3.5 3.5 0 01-3.496 3.495 3.5 3.5 0 01-3.495-3.495 3.5 3.5 0 013.495-3.495M7.003 23.001h9.974v-2.778c0-1.256.204-1.786.661-2.494l1.024-1.58c1.148-1.764 2.233-3.43 2.792-4.491a.317.317 0 00-.112-.418.427.427 0 00-.536.07c-.671.734-2.03 2.164-4.041 4.251l-.369.396c-.951 1.04-1.53 1.54-4.287 1.54h-.123c-2.859-.014-3.442-.515-4.391-1.554l-.356-.382C5.24 13.487 3.88 12.057 3.197 11.31a.428.428 0 00-.535-.07.319.319 0 00-.112.418c.585 1.112 1.828 3.18 3.796 6.323.479.766.657 1.44.657 2.489v2.531zM17.976 24H6.004v-3.53c0-.851-.132-1.363-.504-1.958-2.01-3.208-3.228-5.239-3.833-6.388a1.312 1.312 0 01.455-1.725 1.452 1.452 0 011.812.236c.668.731 2.059 2.195 4.024 4.233l.374.402c.786.86 1.111 1.216 3.659 1.228h.118c2.439 0 2.764-.355 3.55-1.215l.387-.415c2.005-2.08 3.358-3.504 4.024-4.232a1.45 1.45 0 011.811-.237c.582.373.777 1.114.457 1.725-.582 1.101-1.677 2.786-2.839 4.57l-1.022 1.576c-.348.541-.501.889-.501 1.953V24z"/></svg>