<svg height="24" width="24" viewBox="0 0 24 24" xmlns="http://www.w3.org/2000/svg"><path d="M11.088 8.063c.062-.243.1-.426.135-.605l-1.1-.214-.109.5a4.764 4.764 0 0 0-1.166-.021c.009-.268.025-.531.049-.784h1.229V5.897H9.044c.054-.265.099-.424.144-.575L8.114 5a7.486 7.486 0 0 0-.211.897H6.678v1.042H7.77c-.029.336-.046.685-.051 1.038C6.512 8.42 6 9.265 6 10.03c0 .904.714 1.7 1.842 1.598 1.401-.128 2.337-1.186 2.885-2.487.567.327.805.876.591 1.385-.197.471-.78.919-1.892.896v1.121c1.234.019 2.448-.45 2.925-1.583.464-1.107-.067-2.317-1.263-2.897zm-1.446.766c-.175.387-.405.772-.698 1.075a11.072 11.072 0 0 1-.092-1.054c.267-.035.537-.041.79-.021zm-1.894.362c.03.473.084.909.158 1.298-.998.183-1.038-.801-.158-1.298zM2 9.352c0 1.873.849 2.943 1.683 3.943.031 1 .085 1.668-.333 3.183 1.748-.558 2.038-.778 3.008-1.374 1 .244 1.474.381 2.611.491a6.007 6.007 0 0 0 .055 2.023 14.707 14.707 0 0 1-2.33-.374c-1.397.857-4.481 1.725-6.649 2.115.811-1.595 1.708-3.785 1.661-5.312A7.366 7.366 0 0 1 0 9.352C0 4.526 4.719 1 10 1c5.237 0 9.977 3.484 9.998 8.318a9.655 9.655 0 0 0-2.021-.314C17.748 5.664 14.264 3 10 3 5.589 3 2 5.85 2 9.352zm15.657 5.429.725 2.074h-1.445l.72-2.074zM24 16.447c0-3.158-3.089-5.467-6.546-5.467-3.436 0-6.546 2.293-6.546 5.467 0 2.8 2.633 5.442 6.498 5.442.699 0 1.44-.087 2.213-.274.914.561 2.933 1.127 4.352 1.385-.53-1.045-1.117-2.479-1.088-3.479A4.82 4.82 0 0 0 24 16.447zM19.149 19l-.456-1.27h-2.062L16.18 19H15l2.099-5.5H18.2l2.091 5.5h-1.142z"/></svg>