<svg xmlns="http://www.w3.org/2000/svg" width="24" height="24" viewBox="0 0 24 24"><path d="M4.908 2.081L2.08 4.909 21.172 24 24 21.172 4.908 2.081zm17.678 19.091l-1.414 1.414L7.029 8.444 8.443 7.03l14.143 14.142zM8.76 2.599a3.87 3.87 0 012.572 2.573 3.877 3.877 0 012.573-2.573A3.875 3.875 0 0111.332.026 3.87 3.87 0 018.76 2.599zM3.412 9.553A5.132 5.132 0 010 12.966a5.13 5.13 0 013.412 3.411 5.133 5.133 0 013.412-3.411 5.138 5.138 0 01-3.412-3.413zm9.553-3.165a2.736 2.736 0 011.819 1.82 2.738 2.738 0 011.819-1.82 2.738 2.738 0 01-1.819-1.82 2.74 2.74 0 01-1.819 1.82zM17.391 0a3.126 3.126 0 01-2.075 2.076 3.128 3.128 0 012.077 2.077 3.13 3.13 0 012.074-2.077A3.13 3.13 0 0117.391 0z"/></svg>