<svg height="24" width="24" viewBox="0 0 24 24" xmlns="http://www.w3.org/2000/svg" fill-rule="evenodd" clip-rule="evenodd"><path d="M10 24l.009-5.046a4.141 4.141 0 01-1.533-.997 5.198 5.198 0 01-1.726.293c-2.895 0-5.25-2.374-5.25-5.292 0-1.327.478-2.572 1.354-3.546a3.867 3.867 0 01-.404-1.725c0-1.952 1.433-3.57 3.317-3.82C6.72 1.541 8.984 0 11.5 0c2.516 0 4.78 1.541 5.733 3.867 1.884.25 3.317 1.868 3.317 3.82 0 .603-.139 1.192-.403 1.725a5.262 5.262 0 011.353 3.546c0 2.918-2.355 5.292-5.25 5.292a5.192 5.192 0 01-1.725-.293c-.45.455-.963.789-1.534.997L13 24h-3zm1.009-1h.982v-4.8c.78-.203 1.265-.275 2.254-1.438.606.261 1.131.488 2.005.488 2.344 0 4.25-1.926 4.25-4.292 0-.492.03-1.81-1.612-3.389.344-.545.662-1.016.662-1.882 0-.555-.249-2.741-3.034-2.866C15.593 2.174 13.561 1 11.5 1 9.416 1 7.405 2.189 6.484 4.821 3.699 4.946 3.45 7.133 3.45 7.687c0 .884.351 1.389.663 1.882C2.476 11.144 2.5 12.426 2.5 12.958c0 2.366 1.907 4.292 4.25 4.292.894 0 1.451-.249 2.005-.488.993 1.168 1.459 1.231 2.254 1.438V23z"/></svg>