<svg viewBox="0 0 24 24" xmlns="http://www.w3.org/2000/svg"><path d="M12 0C9.238 0 7 2.238 7 5s2.238 5 5 5 5-2.238 5-5-2.238-5-5-5zm.25 7.474V8h-.5v-.499a3.459 3.459 0 01-1.5-.363l.228-.822c.478.186 1.114.383 1.612.271.574-.131.692-.722.057-1.006-.465-.217-1.889-.402-1.889-1.621 0-.682.52-1.292 1.492-1.426V2h.5v.509c.361.01.768.073 1.221.21l-.181.824c-.384-.135-.808-.258-1.222-.232-.744.043-.81.688-.29.958.855.402 1.972.7 1.972 1.772.002.859-.672 1.316-1.5 1.433zM12 14c-2.762 0-5 2.238-5 5s2.238 5 5 5 5-2.238 5-5-2.238-5-5-5zm0 9c-2.205 0-4-1.795-4-4s1.795-4 4-4c2.206 0 4 1.795 4 4s-1.794 4-4 4zm9.577-13.613c1.233 2.352 1.548 6.801-2.585 9.756a6.737 6.737 0 00-.436-2.572c2.113-1.744 2.051-4.264 1.193-6.234l-2.377 1.236 1.596-5.182L24 8.128l-2.423 1.259zM2.423 14.998C1.19 12.646.963 7.852 5.095 4.897a6.753 6.753 0 00.436 2.572c-2.114 1.745-2.139 4.609-1.281 6.58l2.377-1.236-1.596 5.182L0 16.257l2.423-1.259zM11.999 22v-.756h-.248V22h-.502v-.756h-1.242l.127-.744h.27c.219 0 .347-.213.347-.427v-2.222c0-.208-.122-.351-.341-.351H10v-.75h1.249V16h.502v.75h.248V16h.502v.763c1.078.037 1.506.445 1.629.907.143.545-.216 1.002-.525 1.114.375.096.896.373.896 1.013 0 .871-.673 1.454-1.999 1.454V22h-.503zm-.248-2.751V20.5c.991 0 1.671-.094 1.671-.629 0-.575-.734-.622-1.671-.622zm0-.499c.552 0 1.395-.04 1.395-.626 0-.499-.521-.625-1.395-.625v1.251z"/></svg>